<svg xmlns="http://www.w3.org/2000/svg" viewBox="0 0 24 24" height="24" width="24" color="#8696a0" preserveAspectRatio="xMidYMid meet" version="1.1"><title>business-category</title><desc>Created with Sketch.</desc><defs/><g stroke="none" stroke-width="1" fill="none" fill-rule="evenodd"><path d="M5.60860827,7.15515467 C4.78378352,7.15515467 4.06206187,6.43343302 4.06206187,5.60860827 C4.06206187,4.78378352 4.78378352,4.06206187 5.60860827,4.06206187 C6.43343302,4.06206187 7.15515467,4.78378352 7.15515467,5.60860827 C7.15515467,6.43343302 6.43343302,7.15515467 5.60860827,7.15515467 M22.0020001,11.897897 L12.7227217,2.61861856 C12.4134124,2.20620619 11.897897,2 11.2792784,2 L4.06206187,2 C2.92792784,2 2,2.92792784 2,4.06206187 L2,11.2792784 C2,11.897897 2.20620619,12.4134124 2.61861856,12.7227217 L11.897897,22.0020001 C12.3103093,22.4144125 12.8258248,22.6206187 13.3413403,22.6206187 C13.9599588,22.6206187 14.4754743,22.4144125 14.7847836,22.0020001 L22.0020001,14.7847836 C22.4144125,14.3723712 22.6206187,13.8568557 22.6206187,13.3413403 C22.6206187,12.7227217 22.4144125,12.2072063 22.0020001,11.897897" id="Page-1-Copy-2" fill="currentColor"/><g id="slices" transform="translate(0.000000, -234.000000)"/></g></svg>