<svg xmlns="http://www.w3.org/2000/svg" viewBox="0 0 24 24" height="24" width="24" color="#8696a0" preserveAspectRatio="xMidYMid meet" version="1.1" x="0px" y="0px" enable-background="new 0 0 24 24" xml:space="preserve"><path fill="currentColor" enable-background="new    " d="M12.514,6.858h-1.543v6.172l5.349,3.29l0.821-1.336l-4.628-2.777 V6.858z M12,1.714C6.342,1.714,1.714,6.344,1.714,12c0,5.658,4.628,10.287,10.286,10.287S22.286,17.658,22.286,12 C22.286,6.344,17.658,1.714,12,1.714z M12,20.23c-4.526,0-8.23-3.703-8.23-8.23c0-4.525,3.703-8.228,8.23-8.228 S20.23,7.475,20.23,12C20.23,16.526,16.526,20.23,12,20.23z"/></svg>