<svg xmlns="http://www.w3.org/2000/svg" viewBox="0 0 24 24" height="24" width="24" color="#8696a0" preserveAspectRatio="xMidYMid meet" version="1.1" x="0px" y="0px" enable-background="new 0 0 24 24" xml:space="preserve"><path fill="currentColor" d="M12,1.5C6.204,1.5,1.5,6.204,1.5,12S6.204,22.5,12,22.5 S22.5,17.796,22.5,12S17.796,1.5,12,1.5 M12,20.4c-4.63,0-8.4-3.769-8.4-8.4S7.37,3.6,12,3.6c4.629,0,8.4,3.77,8.4,8.4 S16.629,20.4,12,20.4z M12,17.25c0.58,0,1.05-0.47,1.05-1.05v-5.25c0-0.58-0.47-1.05-1.05-1.05c-0.58,0-1.05,0.47-1.05,1.05v5.25 C10.95,16.78,11.42,17.25,12,17.25z M12,8.85c0.58,0,1.05-0.47,1.05-1.05S12.58,6.75,12,6.75c-0.58,0-1.05,0.47-1.05,1.05 S11.42,8.85,12,8.85z"/></svg>