<svg xmlns="http://www.w3.org/2000/svg" viewBox="0 0 19 6" height="24" width="24" color="#8696a0" preserveAspectRatio="xMidYMid meet" version="1.1"><path fill="currentColor" d="M13.3215771,4.8564656 C13.1991403,4.73306621 13.1159227,4.59135186 13.071922,4.43131828 C13.0279213,4.2712847 12.9944429,4.11414565 12.971486,3.95989642 C12.971486,3.95218396 12.9676599,3.92133457 12.9600076,3.86734734 C12.9370507,3.73623549 12.9102681,3.60319753 12.8796589,3.46822945 C12.8490497,3.33326137 12.7897452,3.22143235 12.7017437,3.13273904 C12.5754807,3.00548343 12.3468716,2.89847463 12.0159096,2.81170943 C11.6849475,2.72494424 11.3013816,2.65842526 10.8652004,2.61215049 C10.4290191,2.56587572 9.96797483,2.54081059 9.48205363,2.53695436 C8.99613244,2.53309813 8.53508814,2.55045091 8.09890691,2.58901322 C7.66272567,2.62757552 7.27820325,2.68734621 6.9453281,2.76832705 C6.61245295,2.8493079 6.38288732,2.95342457 6.25662434,3.08068019 C6.16862286,3.1693735 6.10740536,3.28698677 6.07297,3.43352354 C6.03853464,3.58006031 6.00792589,3.73623532 5.98114283,3.90205325 C5.95053362,4.08715232 5.91418573,4.26839245 5.87209807,4.44577907 C5.8300104,4.62316569 5.75348853,4.76777218 5.64253015,4.87960287 C5.53539791,4.98757733 5.37278893,5.08398166 5.15469831,5.16881874 C4.9366077,5.25365581 4.70130293,5.33077927 4.44877695,5.40019143 C4.19625098,5.46960358 3.94659836,5.53033831 3.69981161,5.58239742 C3.45302486,5.63445654 3.25311146,5.67976657 3.10006541,5.71832888 C3.00823779,5.74146626 2.92023763,5.7646033 2.8360623,5.78774069 C2.75188698,5.81087807 2.6753651,5.83015894 2.60649438,5.84558386 C2.44196988,5.8880024 2.28988266,5.91981583 2.15022814,5.9410251 C2.01057362,5.96223437 1.88144296,5.96705458 1.76283227,5.95548589 C1.64422158,5.9439172 1.53135182,5.91113973 1.42421959,5.85715249 C1.31708735,5.80316526 1.20995673,5.72218563 1.1028245,5.61421117 C0.900038485,5.40983093 0.747951258,5.16592799 0.646558252,4.88249503 C0.545165246,4.59906206 0.496382551,4.30310079 0.500208702,3.99460232 C0.504034853,3.68610386 0.562382783,3.38243023 0.675254242,3.08357235 C0.788125701,2.78471446 0.959343397,2.51960257 1.18891247,2.28822872 C1.57917988,1.89489317 2.07274598,1.55362186 2.66962556,1.26440455 C3.26650514,0.975187242 3.93128893,0.735140474 4.66399688,0.544257049 C5.39670483,0.353373623 6.17627143,0.213587353 7.00272008,0.124894044 C7.82916873,0.0362007354 8.66421369,-0.00525312405 9.50788003,0.000531222177 C10.3515464,0.0063155684 11.1856348,0.0603019901 12.0101704,0.162492107 C12.8347059,0.264682223 13.6104465,0.414108926 14.3374152,0.610776698 C15.0643839,0.80744447 15.7243851,1.05231145 16.3174385,1.345385 C16.9104919,1.63845854 17.3964058,1.97587367 17.7751948,2.35764052 C18.0009377,2.58515814 18.175025,2.84737791 18.2974618,3.14430768 C18.4198987,3.44123745 18.4868553,3.74587512 18.4983338,4.05822981 C18.5098122,4.37058451 18.461986,4.67715026 18.3548538,4.97793626 C18.2477216,5.27872227 18.0793734,5.5447982 17.8498044,5.77617205 C17.7082368,5.91885259 17.5465843,5.99308392 17.3648421,5.99886827 C17.1831,6.00465261 16.9965779,5.98826388 16.8052703,5.94970157 C16.6560504,5.92270796 16.5020502,5.88896644 16.3432649,5.84847602 C16.1844796,5.8079856 16.0266532,5.76653174 15.8697811,5.7241132 C15.6976042,5.6739822 15.523517,5.62578003 15.347514,5.57950526 L14.8195078,5.44068165 C14.7582894,5.42525673 14.7066371,5.41176012 14.6645495,5.40019143 L14.5382871,5.36548552 C14.4426333,5.33849191 14.3383723,5.31053465 14.2255008,5.28161292 C14.1126294,5.25269119 14.0016726,5.21991372 13.8926273,5.18327953 C13.783582,5.14664534 13.6802775,5.10229935 13.5827106,5.05024023 C13.4851438,4.99818111 13.3981001,4.93359022 13.3215771,4.8564656 Z"/></svg>