<svg xmlns="http://www.w3.org/2000/svg" viewBox="0 0 24 24" height="24" width="24" color="#8696a0" preserveAspectRatio="xMidYMid meet" version="1.1" x="0px" y="0px" enable-background="new 0 0 24 24" xml:space="preserve"><path id="Fill-1-Copy" fill="currentColor" enable-background="new    " d="M18.4,17.7c-0.3-0.8-1-1.5-2-1.5h-1v-3.1 c0-0.6-0.4-1-1-1H8.2V10h2.1c0.6,0,1-0.4,1-1V6.9h2.1c1.1,0,2.1-0.9,2.1-2.1V4.4c3,1.3,5.2,4.3,5.2,7.7 C20.6,14.3,19.8,16.3,18.4,17.7L18.4,17.7z M11,20.6C6.8,20,3.4,16.4,3.4,12c0-0.7,0.1-1.3,0.2-1.9l5.2,5.2v1.1c0,1.2,1,2.2,2.2,2.2 V20.6z M12,1.5C6.2,1.5,1.5,6.2,1.5,12S6.2,22.5,12,22.5S22.5,17.8,22.5,12S17.8,1.5,12,1.5L12,1.5z"/></svg>