<?xml version="1.0"?>
<svg width="303" height="172" xmlns="http://www.w3.org/2000/svg" xmlns:svg="http://www.w3.org/2000/svg" preserveAspectRatio="xMidYMid meet">

 <g class="layer">
  <title>Layer 1</title>
  <path clip-rule="evenodd" d="m229.56,160.23c32.65,-10.98 57.37,-41.99 53.83,-86.81c-5.38,-68.1 -71.02,-84.99 -111.92,-64.93c-55.47,27.21 -62.5,31.67 -102.23,31.67c-29.59,0 -59.73,14.25 -63.49,52.79c-2.73,27.94 8.25,52.32 48.89,64.77c73.96,22.65 143.38,13.12 174.92,2.51z" fill="#DAF7F3" fill-rule="evenodd" id="svg_1"/>
  <path clip-rule="evenodd" d="m131.59,68.94c0,0 0.01,0 0.01,0c6.26,0 11.34,-5.26 11.34,-11.75c0,-6.5 -5.08,-11.76 -11.34,-11.76c-5.08,0 -9.38,3.47 -10.82,8.24c-0.76,-0.26 -1.57,-0.4 -2.41,-0.4c-4.17,0 -7.56,3.51 -7.56,7.83c0,4.33 3.39,7.84 7.56,7.84c0.01,0 0.01,0 0.02,0l13.2,0z" fill="white" fill-rule="evenodd" id="svg_2"/>
  <path clip-rule="evenodd" d="m105.68,128.72c3.51,0 6.35,-2.81 6.35,-6.27c0,-3.47 -2.84,-6.27 -6.35,-6.27c-1.15,0 -2.24,0.3 -3.17,0.84l0,-0.06c0,-6.49 -5.33,-11.76 -11.9,-11.76c-5.29,0 -9.77,3.42 -11.32,8.13c-0.68,-0.19 -1.41,-0.29 -2.16,-0.29c-4.38,0 -7.93,3.51 -7.93,7.84c0,4.33 3.55,7.84 7.93,7.84c0,0 0.01,0 0.01,0l28.54,0l0,0z" fill="white" fill-rule="evenodd" id="svg_3"/>
  <rect fill="#42CBA5" height="100.07" id="svg_4" rx="7.5" stroke="#316474" transform="matrix(0.994522 0.104528 -0.103907 0.994587 10.5547 41.6171)" width="50.58" x="0.45" y="0.55"/>
  <rect fill="white" height="99.72" id="svg_5" rx="7.5" stroke="#316474" transform="matrix(0.994522 0.104528 -0.103907 0.994587 10.9258 37.9564)" width="50.4" x="0.45" y="0.55"/>
  <path d="m57.16,51.74l-8.57,82.02c-0.31,3.02 -3.02,5.21 -6.04,4.89l-32.97,-3.46c-3.02,-0.32 -5.21,-3.03 -4.9,-6.05l8.57,-82.02c0.32,-3.02 3.02,-5.21 6.04,-4.89l5.26,0.55l22.45,2.36l5.26,0.55c3.02,0.32 5.22,3.02 4.9,6.05z" fill="#EEFEFA" id="svg_6" stroke="#316474"/>
  <path d="m26.2,102.94c0.86,0.08 1.73,0.18 2.6,0.27c0.24,-2.18 0.47,-4.37 0.69,-6.55l-2.61,-0.27c-0.24,2.18 -0.48,4.36 -0.68,6.55zm-2.73,-9.61l2.27,-1.83l1.84,2.26l1.13,-0.92l-1.84,-2.26l2.27,-1.84l-0.92,-1.13l-2.27,1.84l-1.83,-2.27l-1.14,0.92l1.84,2.26l-2.27,1.84l0.92,1.13zm-0.82,5.28c-0.12,1.31 -0.26,2.61 -0.41,3.9c0.88,0.11 1.75,0.19 2.63,0.29c0.15,-1.31 0.28,-2.62 0.41,-3.93c-0.88,-0.09 -1.75,-0.21 -2.63,-0.26zm16.85,-8.83c-0.5,4.8 -1.02,9.59 -1.51,14.39c0.88,0.09 1.74,0.2 2.62,0.27c0.5,-4.79 1,-9.58 1.52,-14.37c-0.87,-0.14 -1.75,-0.19 -2.63,-0.29zm-4.26,2.67c-0.39,3.77 -0.8,7.54 -1.18,11.31c0.86,0.09 1.74,0.17 2.6,0.27c0.44,-3.91 0.82,-7.84 1.25,-11.75c-0.85,-0.15 -1.73,-0.18 -2.59,-0.31c-0.04,0.16 -0.07,0.32 -0.08,0.48zm-4.13,1.73c-0.05,0.16 -0.06,0.33 -0.08,0.49c-0.3,2.9 -0.62,5.78 -0.91,8.68l2.61,0.27c0.13,-1.02 0.22,-2.03 0.33,-3.05c0.2,-2.04 0.46,-4.08 0.63,-6.12c-0.86,-0.08 -1.72,-0.17 -2.58,-0.27z" fill="#316474" id="svg_7"/>
  <path d="m17.89,48.49c-0.09,0.89 0.57,1.7 1.47,1.8c0.91,0.1 1.73,-0.56 1.82,-1.46c0.09,-0.89 -0.57,-1.7 -1.47,-1.8c-0.91,-0.1 -1.72,0.56 -1.82,1.46z" fill="white" id="svg_8" stroke="#316474"/>
  <path d="m231.81,136.68l-33.87,2.36c-0.29,0.02 -0.54,-0.02 -0.69,-0.08c-0.04,-0.02 -0.07,-0.03 -0.09,-0.04l-0.7,-10.04c0.01,-0.02 0.04,-0.04 0.08,-0.06c0.14,-0.08 0.38,-0.15 0.68,-0.17l33.86,-2.37c0.29,-0.01 0.54,0.03 0.69,0.08c0.04,0.02 0.07,0.03 0.09,0.05l0.71,10.04c-0.02,0.01 -0.05,0.03 -0.09,0.05c-0.14,0.08 -0.38,0.16 -0.67,0.18z" fill="white" id="svg_9" stroke="#316474"/>
  <path d="m283.73,125.68l-138.87,9.68c-2.87,0.2 -5.37,-1.96 -5.57,-4.82l-6.23,-88.91c-0.2,-2.85 1.97,-5.34 4.84,-5.54l138.87,-9.69c2.88,-0.2 5.37,1.96 5.58,4.82l6.23,88.91c0.2,2.86 -1.97,5.35 -4.85,5.55z" fill="white" id="svg_10"/>
  <path d="m144.86,135.36c-2.87,0.2 -5.37,-1.96 -5.57,-4.82l-6.23,-88.91c-0.2,-2.85 1.97,-5.34 4.84,-5.54l138.87,-9.69c2.88,-0.2 5.37,1.96 5.58,4.82l6.23,88.91c0.2,2.86 -1.97,5.35 -4.85,5.55" fill="#ffffff" id="svg_11" stroke="#316474"/>
  <path d="m278.56,121.41l-129.88,9.05c-2.42,0.17 -4.51,-1.6 -4.67,-3.91l-5.67,-80.85c-0.16,-2.32 1.65,-4.36 4.08,-4.53l129.88,-9.06c2.43,-0.16 4.51,1.61 4.67,3.92l5.67,80.85c0.16,2.31 -1.65,4.36 -4.08,4.53z" fill="#EEFEFA" id="svg_12" stroke="#316474"/>
  <path d="m230.2,129.97l68.49,-4.78l0.42,6c0.06,0.78 -0.1,1.48 -0.36,1.97c-0.27,0.5 -0.61,0.73 -0.93,0.75l-165.03,11.51c-0.31,0.02 -0.68,-0.16 -1.01,-0.61c-0.34,-0.46 -0.58,-1.13 -0.64,-1.91l-0.42,-5.99l68.5,-4.78c0.26,0.79 0.65,1.48 1.14,2c0.57,0.6 1.3,0.99 2.12,0.93l24.89,-1.74c0.82,-0.06 1.49,-0.54 1.97,-1.21c0.42,-0.58 0.71,-1.32 0.86,-2.14z" fill="#42CBA5" id="svg_13" stroke="#316474"/>
  <path d="m230.37,129.05l69.9,-4.88l0.26,3.68c0.06,0.83 -0.57,1.55 -1.4,1.61l-168.27,11.74c-0.83,0.05 -1.56,-0.57 -1.61,-1.4l-0.26,-3.68l69.91,-4.87c0.59,1.14 1.81,1.9 3.18,1.8l25.38,-1.77c1.38,-0.09 2.48,-1.01 2.91,-2.23z" fill="white" id="svg_14" stroke="#316474"/>
  <ellipse fill="#42CBA5" id="svg_15" rx="16" ry="16" stroke="#316474" transform="matrix(0.997577 -0.0695704 0.0699429 0.997551 210.659 83.553)"/>
  <path d="m208.18,87.11l-3.4,-2.75c0,0 0,0 0,0c-0.82,-0.67 -2.04,-0.56 -2.72,0.25c-0.69,0.81 -0.57,2.02 0.25,2.69l0,0l5.08,4.11c0,0 0,0 0,0c0.89,0.73 2.22,0.53 2.85,-0.43l8.04,-12.21c0.59,-0.89 0.33,-2.07 -0.57,-2.64c-0.89,-0.57 -2.09,-0.32 -2.67,0.56l-6.86,10.42z" fill="white" id="svg_16" stroke="#316474"/>
 </g>
</svg>