<svg xmlns="http://www.w3.org/2000/svg" viewBox="0 0 24 24" height="20" width="20" color="white" preserveAspectRatio="xMidYMid meet" version="1.1" x="0px" y="0px" enable-background="new 0 0 24 24" xml:space="preserve"><path fill="currentColor" d="M5.81,6.899c-0.507,0-0.919,0.41-0.919,0.911v8.379c0,0.501,0.413,0.911,0.92,0.911l9.583,0.008 c0.302,0,0.58-0.146,0.749-0.385L19.494,12l-3.352-4.725c-0.168-0.238-0.446-0.384-0.748-0.384L5.81,6.899z M15.393,5 c0.921,0,1.774,0.447,2.292,1.182L21.812,12l-0.466,0.657l-3.66,5.159C17.166,18.553,16.314,19,15.393,19L5.81,18.992 C4.262,18.992,3,17.738,3,16.19V7.81c0-1.549,1.262-2.802,2.809-2.802L15.393,5z"/></svg>